<svg width="480" height="900" viewBox="0 0 480 900" fill="none" xmlns="http://www.w3.org/2000/svg">
<path d="M88.9508 38.7029C88.9508 39.32 88.4501 39.8205 87.8325 39.8205C87.2151 39.8205 86.7144 39.32 86.7144 38.7029C86.7144 38.0856 87.2151 37.5854 87.8325 37.5854C88.4501 37.5854 88.9508 38.0856 88.9508 38.7029Z" fill="white" fill-opacity="0.1"/>
<path d="M156.332 22.1235C155.553 22.9018 154.29 22.9018 153.511 22.1235C152.732 21.3449 152.732 20.0827 153.511 19.3043C154.29 18.5257 155.553 18.5257 156.332 19.3043C157.111 20.0827 157.111 21.3449 156.332 22.1235Z" fill="white" fill-opacity="0.15"/>
<path d="M37.9039 89.3797C37.9039 89.9968 37.4035 90.4972 36.7859 90.4972C36.1683 90.4972 35.6678 89.9968 35.6678 89.3797C35.6678 88.7624 36.1683 88.2622 36.7859 88.2622C37.4035 88.2622 37.9039 88.7624 37.9039 89.3797Z" fill="white" fill-opacity="0.15"/>
<path d="M4.19557 93.1308C4.04447 91.9226 3.9236 91.8019 2.6846 91.6206C3.89337 91.4694 4.01424 91.3487 4.19557 90.1104C4.34665 91.3186 4.46754 91.4393 5.70652 91.6206C4.49775 91.7715 4.37688 91.9226 4.19557 93.1308Z" fill="white" fill-opacity="0.1"/>
<path d="M325.223 395.39C325.374 396.598 325.495 396.719 326.734 396.9C325.525 397.051 325.405 397.172 325.223 398.41C325.072 397.202 324.951 397.082 323.712 396.9C324.921 396.749 325.042 396.598 325.223 395.39Z" fill="white" fill-opacity="0.1"/>
<path d="M408.821 151.605C408.972 152.813 409.093 152.933 410.332 153.115C409.123 153.266 409.003 153.387 408.821 154.625C408.67 153.417 408.549 153.296 407.31 153.115C408.519 152.964 408.64 152.813 408.821 151.605Z" fill="white" fill-opacity="0.1"/>
<path d="M395.505 318.08C395.656 319.289 395.777 319.409 397.016 319.591C395.807 319.742 395.686 319.862 395.505 321.101C395.354 319.893 395.233 319.772 393.994 319.591C395.203 319.44 395.323 319.289 395.505 318.08Z" fill="white" fill-opacity="0.1"/>
<path d="M310.057 213.028C310.208 214.236 310.329 214.357 311.568 214.538C310.359 214.689 310.238 214.81 310.057 216.048C309.906 214.84 309.785 214.719 308.546 214.538C309.755 214.387 309.876 214.236 310.057 213.028Z" fill="white" fill-opacity="0.1"/>
<path d="M434.05 397.293C434.05 396.676 434.551 396.175 435.168 396.175C435.786 396.175 436.286 396.676 436.286 397.293C436.286 397.91 435.786 398.41 435.168 398.41C434.551 398.41 434.05 397.91 434.05 397.293Z" fill="white" fill-opacity="0.1"/>
<path d="M218.336 303.708C218.336 303.09 218.836 302.59 219.454 302.59C220.071 302.59 220.572 303.09 220.572 303.708C220.572 304.325 220.071 304.825 219.454 304.825C218.836 304.825 218.336 304.325 218.336 303.708Z" fill="white" fill-opacity="0.1"/>
<path d="M372.391 253.191C372.391 252.574 372.892 252.073 373.509 252.073C374.127 252.073 374.627 252.574 374.627 253.191C374.627 253.808 374.127 254.308 373.509 254.308C372.892 254.308 372.391 253.808 372.391 253.191Z" fill="white" fill-opacity="0.1"/>
<path d="M367.037 149.828C367.037 149.211 367.537 148.71 368.155 148.71C368.772 148.71 369.273 149.211 369.273 149.828C369.273 150.445 368.772 150.945 368.155 150.945C367.537 150.945 367.037 150.445 367.037 149.828Z" fill="white" fill-opacity="0.1"/>
<path d="M351.563 210.123C351.563 209.506 352.063 209.006 352.681 209.006C353.298 209.006 353.799 209.506 353.799 210.123C353.799 210.741 353.298 211.241 352.681 211.241C352.063 211.241 351.563 210.741 351.563 210.123Z" fill="white" fill-opacity="0.1"/>
<path d="M144.899 385.346C145.906 384.9 147.084 385.355 147.53 386.362C147.976 387.369 147.521 388.546 146.513 388.992C145.506 389.437 144.328 388.983 143.882 387.976C143.436 386.969 143.892 385.792 144.899 385.346Z" fill="white" fill-opacity="0.15"/>
<path d="M299.071 368.674C299.071 367.573 299.964 366.681 301.066 366.681C302.167 366.681 303.06 367.573 303.06 368.674C303.06 369.775 302.167 370.668 301.066 370.668C299.964 370.668 299.071 369.775 299.071 368.674Z" fill="white" fill-opacity="0.15"/>
<path d="M150.955 320.287C151.734 319.509 152.996 319.509 153.775 320.287C154.554 321.066 154.554 322.328 153.775 323.106C152.996 323.885 151.734 323.885 150.955 323.106C150.176 322.328 150.176 321.066 150.955 320.287Z" fill="white" fill-opacity="0.15"/>
<path d="M176.167 369.55C176.167 368.933 176.667 368.433 177.285 368.433C177.903 368.433 178.403 368.933 178.403 369.55C178.403 370.168 177.903 370.668 177.285 370.668C176.667 370.668 176.167 370.168 176.167 369.55Z" fill="white" fill-opacity="0.15"/>
<path d="M269.382 253.031C269.382 252.414 269.883 251.913 270.501 251.913C271.118 251.913 271.619 252.414 271.619 253.031C271.619 253.648 271.118 254.148 270.501 254.148C269.883 254.148 269.382 253.648 269.382 253.031Z" fill="white" fill-opacity="0.15"/>
<path d="M331.881 327.328C332.032 328.536 332.153 328.657 333.392 328.838C332.184 328.989 332.063 329.11 331.881 330.348C331.73 329.14 331.609 329.019 330.37 328.838C331.579 328.687 331.7 328.536 331.881 327.328Z" fill="white" fill-opacity="0.1"/>
<path d="M226.521 375.417C226.672 376.625 226.793 376.746 228.032 376.927C226.823 377.078 226.702 377.199 226.521 378.437C226.37 377.229 226.249 377.108 225.01 376.927C226.219 376.776 226.34 376.625 226.521 375.417Z" fill="white" fill-opacity="0.1"/>
<path d="M303.091 249.28C303.242 250.488 303.363 250.609 304.602 250.79C303.393 250.941 303.272 251.062 303.091 252.3C302.94 251.092 302.819 250.971 301.58 250.79C302.789 250.639 302.91 250.488 303.091 249.28Z" fill="white" fill-opacity="0.1"/>
<path d="M370.783 364.319C370.934 365.528 371.055 365.648 372.294 365.83C371.085 365.981 370.964 366.102 370.783 367.34C370.632 366.132 370.511 366.011 369.272 365.83C370.481 365.679 370.602 365.528 370.783 364.319Z" fill="white" fill-opacity="0.1"/>
<path d="M462.659 598.202C462.809 596.994 462.93 596.873 464.169 596.692C462.961 596.541 462.84 596.42 462.659 595.181C462.507 596.39 462.386 596.51 461.148 596.692C462.356 596.843 462.477 596.994 462.659 598.202Z" fill="white" fill-opacity="0.1"/>
<path d="M450.063 732.025C450.214 730.816 450.335 730.696 451.574 730.514C450.365 730.363 450.244 730.243 450.063 729.004C449.912 730.212 449.791 730.333 448.552 730.514C449.76 730.665 449.881 730.816 450.063 732.025Z" fill="white" fill-opacity="0.1"/>
<path d="M285.231 640.139C285.382 638.931 285.503 638.81 286.742 638.629C285.533 638.478 285.412 638.357 285.231 637.119C285.08 638.327 284.959 638.448 283.72 638.629C284.929 638.78 285.05 638.931 285.231 640.139Z" fill="white" fill-opacity="0.1"/>
<path d="M373.944 544.196C374.095 542.988 374.216 542.867 375.455 542.686C374.246 542.534 374.125 542.414 373.944 541.175C373.793 542.383 373.672 542.504 372.433 542.686C373.642 542.836 373.762 542.988 373.944 544.196Z" fill="white" fill-opacity="0.1"/>
<path d="M393.152 590.203C393.152 590.82 393.653 591.32 394.27 591.32C394.888 591.32 395.388 590.82 395.388 590.203C395.388 589.585 394.888 589.085 394.27 589.085C393.653 589.085 393.152 589.585 393.152 590.203Z" fill="white" fill-opacity="0.1"/>
<path d="M227.061 698.068C227.061 698.685 227.561 699.185 228.179 699.185C228.796 699.185 229.297 698.685 229.297 698.068C229.297 697.45 228.796 696.95 228.179 696.95C227.561 696.95 227.061 697.45 227.061 698.068Z" fill="white" fill-opacity="0.1"/>
<path d="M272.594 540.118C272.594 540.735 273.095 541.235 273.713 541.235C274.33 541.235 274.831 540.735 274.831 540.118C274.831 539.5 274.33 539 273.713 539C273.095 539 272.594 539.5 272.594 540.118Z" fill="white" fill-opacity="0.1"/>
<path d="M475.618 755.133C475.618 755.751 476.118 756.251 476.736 756.251C477.353 756.251 477.854 755.751 477.854 755.133C477.854 754.516 477.353 754.016 476.736 754.016C476.118 754.016 475.618 754.516 475.618 755.133Z" fill="white" fill-opacity="0.1"/>
<path d="M455.599 646.651C455.599 647.268 456.099 647.769 456.717 647.769C457.335 647.769 457.835 647.268 457.835 646.651C457.835 646.034 457.335 645.534 456.717 645.534C456.099 645.534 455.599 646.034 455.599 646.651Z" fill="white" fill-opacity="0.1"/>
<path d="M471.275 690.136C472.282 690.582 473.46 690.127 473.906 689.12C474.352 688.114 473.897 686.936 472.889 686.49C471.882 686.045 470.704 686.5 470.258 687.506C469.812 688.513 470.268 689.69 471.275 690.136Z" fill="white" fill-opacity="0.15"/>
<path d="M324.571 684.59C324.571 685.691 325.464 686.584 326.565 686.584C327.667 686.584 328.56 685.691 328.56 684.59C328.56 683.489 327.667 682.597 326.565 682.597C325.464 682.597 324.571 683.489 324.571 684.59Z" fill="white" fill-opacity="0.15"/>
<path d="M390.71 651.624C391.489 652.402 392.752 652.402 393.531 651.624C394.31 650.845 394.31 649.583 393.531 648.805C392.752 648.026 391.489 648.026 390.71 648.805C389.931 649.583 389.931 650.845 390.71 651.624Z" fill="white" fill-opacity="0.15"/>
<path d="M462.627 548.997C462.627 549.614 463.128 550.114 463.745 550.114C464.363 550.114 464.863 549.614 464.863 548.997C464.863 548.38 464.363 547.879 463.745 547.879C463.128 547.879 462.627 548.38 462.627 548.997Z" fill="white" fill-opacity="0.15"/>
<path d="M340.251 580.068C340.251 580.685 340.752 581.186 341.369 581.186C341.987 581.186 342.487 580.685 342.487 580.068C342.487 579.451 341.987 578.951 341.369 578.951C340.752 578.951 340.251 579.451 340.251 580.068Z" fill="white" fill-opacity="0.15"/>
<path d="M328.673 754.061C328.825 752.852 328.945 752.732 330.184 752.55C328.976 752.399 328.855 752.278 328.673 751.04C328.522 752.248 328.402 752.369 327.163 752.55C328.371 752.701 328.492 752.852 328.673 754.061Z" fill="white" fill-opacity="0.1"/>
<path d="M241.149 611.148C241.3 609.94 241.42 609.819 242.659 609.638C241.451 609.487 241.33 609.366 241.149 608.128C240.997 609.336 240.877 609.456 239.638 609.638C240.846 609.789 240.967 609.94 241.149 611.148Z" fill="white" fill-opacity="0.1"/>
<path d="M185.51 663.768C185.661 662.56 185.782 662.439 187.021 662.258C185.812 662.107 185.692 661.986 185.51 660.747C185.359 661.956 185.238 662.076 183.999 662.258C185.208 662.409 185.329 662.56 185.51 663.768Z" fill="white" fill-opacity="0.1"/>
<path d="M271.3 775.957C271.452 777.165 271.572 777.286 272.811 777.467C271.603 777.618 271.482 777.739 271.3 778.977C271.149 777.769 271.028 777.648 269.789 777.467C270.998 777.316 271.119 777.165 271.3 775.957Z" fill="white" fill-opacity="0.1"/>
<path d="M175.061 784.294C175.212 785.502 175.333 785.623 176.572 785.804C175.363 785.956 175.242 786.076 175.061 787.315C174.91 786.106 174.789 785.986 173.55 785.804C174.759 785.654 174.879 785.502 175.061 784.294Z" fill="white" fill-opacity="0.1"/>
<path d="M208.772 893.712C208.772 893.095 209.272 892.594 209.89 892.594C210.507 892.594 211.008 893.095 211.008 893.712C211.008 894.329 210.507 894.829 209.89 894.829C209.272 894.829 208.772 894.329 208.772 893.712Z" fill="white" fill-opacity="0.1"/>
<path d="M235.405 850.433C235.405 849.816 235.905 849.315 236.523 849.315C237.14 849.315 237.641 849.816 237.641 850.433C237.641 851.05 237.14 851.55 236.523 851.55C235.905 851.55 235.405 851.05 235.405 850.433Z" fill="white" fill-opacity="0.1"/>
<path d="M200.616 761.185C200.616 760.568 201.116 760.068 201.734 760.068C202.351 760.068 202.852 760.568 202.852 761.185C202.852 761.803 202.351 762.303 201.734 762.303C201.116 762.303 200.616 761.803 200.616 761.185Z" fill="white" fill-opacity="0.1"/>
<path d="M180.597 869.668C180.597 869.05 181.098 868.55 181.715 868.55C182.333 868.55 182.833 869.05 182.833 869.668C182.833 870.285 182.333 870.785 181.715 870.785C181.098 870.785 180.597 870.285 180.597 869.668Z" fill="white" fill-opacity="0.1"/>
<path d="M196.273 826.183C197.28 825.737 198.458 826.192 198.904 827.199C199.35 828.205 198.895 829.383 197.888 829.828C196.88 830.274 195.702 829.819 195.256 828.812C194.81 827.806 195.266 826.629 196.273 826.183Z" fill="white" fill-opacity="0.15"/>
<path d="M49.5689 831.728C49.5689 830.627 50.4618 829.735 51.5632 829.735C52.6649 829.735 53.5578 830.627 53.5578 831.728C53.5578 832.829 52.6649 833.722 51.5632 833.722C50.4618 833.722 49.5689 832.829 49.5689 831.728Z" fill="white" fill-opacity="0.15"/>
<path d="M115.709 864.695C116.487 863.917 117.75 863.917 118.529 864.695C119.308 865.474 119.308 866.736 118.529 867.514C117.75 868.293 116.487 868.293 115.709 867.514C114.93 866.736 114.93 865.474 115.709 864.695Z" fill="white" fill-opacity="0.15"/>
<path d="M53.6717 762.258C53.8228 763.466 53.9436 763.587 55.1826 763.769C53.9739 763.92 53.853 764.04 53.6717 765.279C53.5206 764.071 53.3997 763.95 52.1607 763.769C53.3695 763.618 53.4904 763.466 53.6717 762.258Z" fill="white" fill-opacity="0.1"/>
</svg>
